<?xml version="1.0" encoding="utf-8"?>
<!-- Generator: Adobe Illustrator 23.0.1, SVG Export Plug-In . SVG Version: 6.00 Build 0)  -->
<svg version="1.1" id="Layer_1" xmlns="http://www.w3.org/2000/svg" xmlns:xlink="http://www.w3.org/1999/xlink" x="0px" y="0px"
	 viewBox="0 0 1400 1400" style="enable-background:new 0 0 1400 1400;" xml:space="preserve">
<style type="text/css">
	.st0{fill:#FFFFFF;}
	.st1{fill:url(#SVGID_1_);}
	.st2{fill:url(#SVGID_2_);}
	.st3{opacity:0.4;fill:url(#SVGID_3_);}
	.st4{fill:url(#SVGID_4_);}
	.st5{filter:url(#Adobe_OpacityMaskFilter);}
	.st6{filter:url(#Adobe_OpacityMaskFilter_1_);}
	.st7{mask:url(#SVGID_5_);fill:url(#SVGID_6_);}
	.st8{fill:url(#SVGID_7_);}
	.st9{filter:url(#Adobe_OpacityMaskFilter_2_);}
	.st10{filter:url(#Adobe_OpacityMaskFilter_3_);}
	.st11{mask:url(#SVGID_8_);fill:url(#SVGID_9_);}
	.st12{fill:url(#SVGID_10_);}
	.st13{filter:url(#Adobe_OpacityMaskFilter_4_);}
	.st14{filter:url(#Adobe_OpacityMaskFilter_5_);}
	.st15{mask:url(#SVGID_11_);fill:url(#SVGID_12_);}
	.st16{fill:url(#SVGID_13_);}
	.st17{opacity:0.4;fill:url(#SVGID_14_);}
	.st18{fill:url(#SVGID_15_);}
	.st19{fill:url(#SVGID_16_);}
	.st20{fill:#C6146C;}
	.st21{fill:url(#SVGID_17_);}
	.st22{fill:url(#SVGID_18_);}
	.st23{fill:url(#SVGID_19_);}
	.st24{fill:url(#SVGID_20_);}
	.st25{fill:url(#SVGID_21_);}
	.st26{fill:url(#SVGID_22_);}
	.st27{fill:url(#SVGID_23_);}
	.st28{fill:url(#SVGID_24_);}
	.st29{fill:url(#SVGID_25_);}
	.st30{fill:url(#SVGID_26_);}
	.st31{fill:url(#SVGID_27_);}
	.st32{fill:url(#SVGID_28_);}
	.st33{fill:url(#SVGID_29_);}
	.st34{fill:url(#SVGID_30_);}
	.st35{fill:url(#SVGID_31_);}
	.st36{fill:url(#SVGID_32_);}
	.st37{fill:url(#SVGID_33_);}
	.st38{fill:url(#SVGID_34_);}
	.st39{fill:url(#SVGID_35_);}
	.st40{fill:url(#SVGID_36_);}
	.st41{fill:url(#SVGID_37_);}
	.st42{fill:url(#SVGID_38_);}
	.st43{fill:url(#SVGID_39_);}
	.st44{fill:url(#SVGID_40_);}
	.st45{fill:url(#SVGID_41_);}
</style>
<path class="st0" d="M61.2,553.74c-6.43,0-6.45,10,0,10C67.63,563.74,67.64,553.74,61.2,553.74z"/>
<g>
	<radialGradient id="SVGID_1_" cx="71.1782" cy="798.2673" r="4.9157" gradientUnits="userSpaceOnUse">
		<stop  offset="0" style="stop-color:#00B9F1"/>
		<stop  offset="0.3037" style="stop-color:#00B6F0"/>
		<stop  offset="0.4997" style="stop-color:#00AEEC"/>
		<stop  offset="0.6653" style="stop-color:#009FE5"/>
		<stop  offset="0.8139" style="stop-color:#008ADC"/>
		<stop  offset="0.9499" style="stop-color:#006FD0"/>
		<stop  offset="1" style="stop-color:#0063CB"/>
	</radialGradient>
	<path class="st1" d="M71.18,793.27c-6.43,0-6.45,10,0,10C77.61,803.27,77.62,793.27,71.18,793.27z"/>
	<g>
		<radialGradient id="SVGID_2_" cx="700" cy="700" r="734.223" gradientUnits="userSpaceOnUse">
			<stop  offset="0" style="stop-color:#350058"/>
			<stop  offset="1" style="stop-color:#280232"/>
		</radialGradient>
		<rect class="st2" width="1400" height="1400"/>
		<linearGradient id="SVGID_3_" gradientUnits="userSpaceOnUse" x1="1410.1893" y1="-162.9564" x2="1025.2388" y2="481.4787">
			<stop  offset="0" style="stop-color:#6F008A"/>
			<stop  offset="1" style="stop-color:#34015E"/>
		</linearGradient>
		<path class="st3" d="M1400,0H634.35c0,0-7.91,165.68,204.2,165.46c212.11-0.22,26.05,97.89,212.11,207.09
			c186.06,109.2,254.5,241.08,233.11,364.41c-21.39,123.33-265.14-292.58-322.85-236.67c-57.7,55.9-31.86,205.51,271.67,374.71
			c70.53,39.32,125.13,78.29,167.4,114.96V0z"/>
		<linearGradient id="SVGID_4_" gradientUnits="userSpaceOnUse" x1="927.038" y1="484.5509" x2="1309.8505" y2="-5.1923">
			<stop  offset="0" style="stop-color:#6F008A"/>
			<stop  offset="1" style="stop-color:#34015E"/>
		</linearGradient>
		<path class="st4" d="M811.61,0c0,0,4.12,136.99,237.07,130.8c232.95-6.19,269.63,44.31,239.52,166.62S1400,511.69,1400,511.69V0
			H811.61z"/>
		<defs>
			<filter id="Adobe_OpacityMaskFilter" filterUnits="userSpaceOnUse" x="0" y="0" width="835.43" height="813.5">
				<feFlood  style="flood-color:white;flood-opacity:1" result="back"/>
				<feBlend  in="SourceGraphic" in2="back" mode="normal"/>
			</filter>
		</defs>
		<mask maskUnits="userSpaceOnUse" x="0" y="0" width="835.43" height="813.5" id="SVGID_5_">
			<g class="st5">
				<defs>
					<filter id="Adobe_OpacityMaskFilter_1_" filterUnits="userSpaceOnUse" x="0" y="0" width="835.43" height="813.5">
						<feFlood  style="flood-color:white;flood-opacity:1" result="back"/>
						<feBlend  in="SourceGraphic" in2="back" mode="normal"/>
					</filter>
				</defs>
				<mask maskUnits="userSpaceOnUse" x="0" y="0" width="835.43" height="813.5" id="SVGID_5_">
					<g class="st6">
					</g>
				</mask>
				<linearGradient id="SVGID_6_" gradientUnits="userSpaceOnUse" x1="135.3296" y1="68.3725" x2="1106.26" y2="1114.1548">
					<stop  offset="0" style="stop-color:#000000"/>
					<stop  offset="0.1524" style="stop-color:#3B3B3B"/>
					<stop  offset="0.3218" style="stop-color:#767676"/>
					<stop  offset="0.4856" style="stop-color:#A7A7A7"/>
					<stop  offset="0.6394" style="stop-color:#CDCDCD"/>
					<stop  offset="0.7808" style="stop-color:#E9E9E9"/>
					<stop  offset="0.9054" style="stop-color:#F9F9F9"/>
					<stop  offset="1" style="stop-color:#FFFFFF"/>
				</linearGradient>
				<polygon class="st7" points="0,279.05 534.45,813.5 835.43,466 369.42,0 0,0 				"/>
			</g>
		</mask>
		<linearGradient id="SVGID_7_" gradientUnits="userSpaceOnUse" x1="135.3296" y1="68.3725" x2="1106.26" y2="1114.1548">
			<stop  offset="0" style="stop-color:#350058"/>
			<stop  offset="0.02" style="stop-color:#3B0159"/>
			<stop  offset="0.2162" style="stop-color:#760F65"/>
			<stop  offset="0.4054" style="stop-color:#A71A6E"/>
			<stop  offset="0.5831" style="stop-color:#CD2375"/>
			<stop  offset="0.7465" style="stop-color:#E9297B"/>
			<stop  offset="0.8906" style="stop-color:#F92D7E"/>
			<stop  offset="1" style="stop-color:#FF2E7F"/>
		</linearGradient>
		<polygon class="st8" points="0,279.05 534.45,813.5 835.43,466 369.42,0 0,0 		"/>
		<defs>
			<filter id="Adobe_OpacityMaskFilter_2_" filterUnits="userSpaceOnUse" x="0" y="0" width="788.09" height="745.11">
				<feFlood  style="flood-color:white;flood-opacity:1" result="back"/>
				<feBlend  in="SourceGraphic" in2="back" mode="normal"/>
			</filter>
		</defs>
		<mask maskUnits="userSpaceOnUse" x="0" y="0" width="788.09" height="745.11" id="SVGID_8_">
			<g class="st9">
				<defs>
					<filter id="Adobe_OpacityMaskFilter_3_" filterUnits="userSpaceOnUse" x="0" y="0" width="788.09" height="745.11">
						<feFlood  style="flood-color:white;flood-opacity:1" result="back"/>
						<feBlend  in="SourceGraphic" in2="back" mode="normal"/>
					</filter>
				</defs>
				<mask maskUnits="userSpaceOnUse" x="0" y="0" width="788.09" height="745.11" id="SVGID_8_">
					<g class="st10">
					</g>
				</mask>
				<linearGradient id="SVGID_9_" gradientUnits="userSpaceOnUse" x1="31.2772" y1="3.8781" x2="945.1816" y2="880.7128">
					<stop  offset="0" style="stop-color:#000000"/>
					<stop  offset="0.0487" style="stop-color:#121212"/>
					<stop  offset="0.255" style="stop-color:#595959"/>
					<stop  offset="0.4496" style="stop-color:#949494"/>
					<stop  offset="0.6267" style="stop-color:#C2C2C2"/>
					<stop  offset="0.7831" style="stop-color:#E3E3E3"/>
					<stop  offset="0.9129" style="stop-color:#F8F8F8"/>
					<stop  offset="1" style="stop-color:#FFFFFF"/>
				</linearGradient>
				<polygon class="st11" points="0,150.39 594.72,745.11 788.09,551.74 236.36,0 0,0 				"/>
			</g>
		</mask>
		<linearGradient id="SVGID_10_" gradientUnits="userSpaceOnUse" x1="31.2772" y1="3.8781" x2="945.1816" y2="880.7128">
			<stop  offset="0" style="stop-color:#350058"/>
			<stop  offset="0.1294" style="stop-color:#5A085F"/>
			<stop  offset="0.3546" style="stop-color:#94166A"/>
			<stop  offset="0.5623" style="stop-color:#C22073"/>
			<stop  offset="0.7457" style="stop-color:#E3287A"/>
			<stop  offset="0.8978" style="stop-color:#F82C7E"/>
			<stop  offset="1" style="stop-color:#FF2E7F"/>
		</linearGradient>
		<polygon class="st12" points="0,150.39 594.72,745.11 788.09,551.74 236.36,0 0,0 		"/>
		<defs>
			<filter id="Adobe_OpacityMaskFilter_4_" filterUnits="userSpaceOnUse" x="0" y="0" width="658.83" height="626.5">
				<feFlood  style="flood-color:white;flood-opacity:1" result="back"/>
				<feBlend  in="SourceGraphic" in2="back" mode="normal"/>
			</filter>
		</defs>
		<mask maskUnits="userSpaceOnUse" x="0" y="0" width="658.83" height="626.5" id="SVGID_11_">
			<g class="st13">
				<defs>
					<filter id="Adobe_OpacityMaskFilter_5_" filterUnits="userSpaceOnUse" x="0" y="0" width="658.83" height="626.5">
						<feFlood  style="flood-color:white;flood-opacity:1" result="back"/>
						<feBlend  in="SourceGraphic" in2="back" mode="normal"/>
					</filter>
				</defs>
				<mask maskUnits="userSpaceOnUse" x="0" y="0" width="658.83" height="626.5" id="SVGID_11_">
					<g class="st14">
					</g>
				</mask>
				<linearGradient id="SVGID_12_" gradientUnits="userSpaceOnUse" x1="-143.3804" y1="-185.4603" x2="893.8472" y2="873.1523">
					<stop  offset="0" style="stop-color:#000000"/>
					<stop  offset="0.1524" style="stop-color:#3B3B3B"/>
					<stop  offset="0.3218" style="stop-color:#767676"/>
					<stop  offset="0.4856" style="stop-color:#A7A7A7"/>
					<stop  offset="0.6394" style="stop-color:#CDCDCD"/>
					<stop  offset="0.7808" style="stop-color:#E9E9E9"/>
					<stop  offset="0.9054" style="stop-color:#F9F9F9"/>
					<stop  offset="1" style="stop-color:#FFFFFF"/>
				</linearGradient>
				<polygon class="st15" points="0,50.26 576.24,626.5 658.83,543.91 114.92,0 0,0 				"/>
			</g>
		</mask>
		<linearGradient id="SVGID_13_" gradientUnits="userSpaceOnUse" x1="-143.3804" y1="-185.4603" x2="893.8472" y2="873.1523">
			<stop  offset="0" style="stop-color:#350058"/>
			<stop  offset="0.02" style="stop-color:#3B0159"/>
			<stop  offset="0.2162" style="stop-color:#760F65"/>
			<stop  offset="0.4054" style="stop-color:#A71A6E"/>
			<stop  offset="0.5831" style="stop-color:#CD2375"/>
			<stop  offset="0.7465" style="stop-color:#E9297B"/>
			<stop  offset="0.8906" style="stop-color:#F92D7E"/>
			<stop  offset="1" style="stop-color:#FF2E7F"/>
		</linearGradient>
		<polygon class="st16" points="0,50.26 576.24,626.5 658.83,543.91 114.92,0 0,0 		"/>
		<linearGradient id="SVGID_14_" gradientUnits="userSpaceOnUse" x1="780.3224" y1="839.9194" x2="594.9762" y2="1438.7317">
			<stop  offset="0" style="stop-color:#6F008A"/>
			<stop  offset="1" style="stop-color:#34015E"/>
		</linearGradient>
		<path class="st17" d="M1400,1400v-104.65c-59.97-2.76-132.7-6.71-220-16.35c-371-41-198.53-280.16-369-293c-146-11,81,192-108,207
			s-228-147-364-312S0,798.85,0,798.85V1400H1400z"/>
		<linearGradient id="SVGID_15_" gradientUnits="userSpaceOnUse" x1="465.0646" y1="951.988" x2="328.1928" y2="1394.1902">
			<stop  offset="0" style="stop-color:#6F008A"/>
			<stop  offset="1" style="stop-color:#34015E"/>
		</linearGradient>
		<path class="st18" d="M0,1032.74c0,0,151.34-143.22,253.12-32.01s-26.54,340.77,212.99,358.58s262.1-114.64,300.36,40.69H0
			V1032.74z"/>
		<g>
			<radialGradient id="SVGID_16_" cx="679.9701" cy="630.0298" r="235.7406" gradientUnits="userSpaceOnUse">
				<stop  offset="0" style="stop-color:#FF2E7F"/>
				<stop  offset="0.1844" style="stop-color:#FF2E7F"/>
				<stop  offset="0.5318" style="stop-color:#FD2D7F"/>
				<stop  offset="0.6926" style="stop-color:#F52B7F"/>
				<stop  offset="0.8145" style="stop-color:#E9267E"/>
				<stop  offset="0.9169" style="stop-color:#D71F7D"/>
				<stop  offset="0.933" style="stop-color:#D31E7D"/>
				<stop  offset="0.9546" style="stop-color:#D61F7D"/>
				<stop  offset="0.9734" style="stop-color:#E1237E"/>
				<stop  offset="0.991" style="stop-color:#F32A7E"/>
				<stop  offset="1" style="stop-color:#FF2E7F"/>
			</radialGradient>
			<circle class="st19" cx="691" cy="645" r="230"/>
		</g>
		
			<ellipse transform="matrix(0.2298 -0.9732 0.9732 0.2298 -73.6532 1339.7471)" class="st20" cx="809.59" cy="716.41" rx="9.39" ry="9.39"/>
		<circle class="st20" cx="838.55" cy="656.49" r="14.58"/>
		
			<ellipse transform="matrix(0.7071 -0.7071 0.7071 0.7071 -357.9796 735.3498)" class="st20" cx="708.66" cy="799.79" rx="8.66" ry="8.66"/>
		
			<ellipse transform="matrix(0.2298 -0.9732 0.9732 0.2298 -120.704 1260.573)" class="st20" cx="736.05" cy="706.54" rx="30.42" ry="30.42"/>
		
			<ellipse transform="matrix(0.2298 -0.9732 0.9732 0.2298 -276.86 1209.6372)" class="st20" cx="625.79" cy="779.73" rx="8.55" ry="8.55"/>
		<path class="st20" d="M863.5,575.33c0,2.86-2.32,5.19-5.19,5.19c-2.86,0-5.19-2.32-5.19-5.19c0-2.86,2.32-5.19,5.19-5.19
			C861.18,570.15,863.5,572.47,863.5,575.33z"/>
		
			<ellipse transform="matrix(0.7071 -0.7071 0.7071 0.7071 -121.1905 707.9944)" class="st20" cx="794.03" cy="500.29" rx="17.58" ry="17.58"/>
		<circle class="st20" cx="779.82" cy="813.15" r="13.36"/>
		<path class="st0" d="M1127.65,86.1c-6.43,0-6.45,10,0,10C1134.09,96.1,1134.1,86.1,1127.65,86.1z"/>
		<path class="st0" d="M1293.04,376.95c-6.43,0-6.45,10,0,10C1299.47,386.95,1299.48,376.95,1293.04,376.95z"/>
		<path class="st0" d="M263.65,853.15c-6.43,0-6.45,10,0,10C270.09,863.15,270.1,853.15,263.65,853.15z"/>
		<path class="st0" d="M175.26,1158.26c-6.43,0-6.45,10,0,10C181.69,1168.26,181.7,1158.26,175.26,1158.26z"/>
		<path class="st0" d="M466.11,1349.31c-6.43,0-6.45,10,0,10C472.54,1359.31,472.55,1349.31,466.11,1349.31z"/>
		<path class="st0" d="M1053.51,987.17c-6.43,0-6.45,10,0,10C1059.95,997.17,1059.96,987.17,1053.51,987.17z"/>
		<path class="st0" d="M1301.59,1218.14c-6.43,0-6.45,10,0,10C1308.03,1228.14,1308.04,1218.14,1301.59,1218.14z"/>
		<path class="st0" d="M1133.36,1300.83c-6.43,0-6.45,10,0,10C1139.79,1310.83,1139.8,1300.83,1133.36,1300.83z"/>
		<path class="st0" d="M257.95,753.35c-6.43,0-6.45,10,0,10C264.39,763.35,264.4,753.35,257.95,753.35z"/>
		<path class="st0" d="M600.13,944.4c-6.43,0-6.45,10,0,10C606.56,954.4,606.57,944.4,600.13,944.4z"/>
		<path class="st0" d="M845.36,399.76c-6.43,0-6.45,10,0,10C851.79,409.76,851.8,399.76,845.36,399.76z"/>
		<path class="st0" d="M583.02,83.25c-6.43,0-6.45,10,0,10C589.45,93.25,589.47,83.25,583.02,83.25z"/>
		<radialGradient id="SVGID_17_" cx="1305.1583" cy="571.5742" r="4.9157" gradientUnits="userSpaceOnUse">
			<stop  offset="0" style="stop-color:#00B9F1"/>
			<stop  offset="0.3037" style="stop-color:#00B6F0"/>
			<stop  offset="0.4997" style="stop-color:#00AEEC"/>
			<stop  offset="0.6653" style="stop-color:#009FE5"/>
			<stop  offset="0.8139" style="stop-color:#008ADC"/>
			<stop  offset="0.9499" style="stop-color:#006FD0"/>
			<stop  offset="1" style="stop-color:#0063CB"/>
		</radialGradient>
		<path class="st21" d="M1305.16,566.57c-6.43,0-6.45,10,0,10C1311.59,576.57,1311.6,566.57,1305.16,566.57z"/>
		<radialGradient id="SVGID_18_" cx="1292.3268" cy="843.1782" r="4.9157" gradientUnits="userSpaceOnUse">
			<stop  offset="0" style="stop-color:#00B9F1"/>
			<stop  offset="0.3037" style="stop-color:#00B6F0"/>
			<stop  offset="0.4997" style="stop-color:#00AEEC"/>
			<stop  offset="0.6653" style="stop-color:#009FE5"/>
			<stop  offset="0.8139" style="stop-color:#008ADC"/>
			<stop  offset="0.9499" style="stop-color:#006FD0"/>
			<stop  offset="1" style="stop-color:#0063CB"/>
		</radialGradient>
		<path class="st22" d="M1292.33,838.18c-6.43,0-6.45,10,0,10C1298.76,848.18,1298.77,838.18,1292.33,838.18z"/>
		<radialGradient id="SVGID_19_" cx="1138.3466" cy="990.7426" r="4.9157" gradientUnits="userSpaceOnUse">
			<stop  offset="0" style="stop-color:#00B9F1"/>
			<stop  offset="0.3037" style="stop-color:#00B6F0"/>
			<stop  offset="0.4997" style="stop-color:#00AEEC"/>
			<stop  offset="0.6653" style="stop-color:#009FE5"/>
			<stop  offset="0.8139" style="stop-color:#008ADC"/>
			<stop  offset="0.9499" style="stop-color:#006FD0"/>
			<stop  offset="1" style="stop-color:#0063CB"/>
		</radialGradient>
		<path class="st23" d="M1138.35,985.74c-6.43,0-6.45,10,0,10C1144.78,995.74,1144.79,985.74,1138.35,985.74z"/>
		<radialGradient id="SVGID_20_" cx="511.7326" cy="1024.9604" r="4.9157" gradientUnits="userSpaceOnUse">
			<stop  offset="0" style="stop-color:#00B9F1"/>
			<stop  offset="0.3037" style="stop-color:#00B6F0"/>
			<stop  offset="0.4997" style="stop-color:#00AEEC"/>
			<stop  offset="0.6653" style="stop-color:#009FE5"/>
			<stop  offset="0.8139" style="stop-color:#008ADC"/>
			<stop  offset="0.9499" style="stop-color:#006FD0"/>
			<stop  offset="1" style="stop-color:#0063CB"/>
		</radialGradient>
		<path class="st24" d="M511.73,1019.96c-6.43,0-6.45,10,0,10C518.17,1029.96,518.18,1019.96,511.73,1019.96z"/>
		<radialGradient id="SVGID_21_" cx="565.1979" cy="1345.7524" r="4.9157" gradientUnits="userSpaceOnUse">
			<stop  offset="0" style="stop-color:#00B9F1"/>
			<stop  offset="0.3037" style="stop-color:#00B6F0"/>
			<stop  offset="0.4997" style="stop-color:#00AEEC"/>
			<stop  offset="0.6653" style="stop-color:#009FE5"/>
			<stop  offset="0.8139" style="stop-color:#008ADC"/>
			<stop  offset="0.9499" style="stop-color:#006FD0"/>
			<stop  offset="1" style="stop-color:#0063CB"/>
		</radialGradient>
		<path class="st25" d="M565.2,1340.75c-6.43,0-6.45,10,0,10C571.63,1350.75,571.64,1340.75,565.2,1340.75z"/>
		<radialGradient id="SVGID_22_" cx="1037.8317" cy="1116.9208" r="4.9157" gradientUnits="userSpaceOnUse">
			<stop  offset="0" style="stop-color:#00B9F1"/>
			<stop  offset="0.3037" style="stop-color:#00B6F0"/>
			<stop  offset="0.4997" style="stop-color:#00AEEC"/>
			<stop  offset="0.6653" style="stop-color:#009FE5"/>
			<stop  offset="0.8139" style="stop-color:#008ADC"/>
			<stop  offset="0.9499" style="stop-color:#006FD0"/>
			<stop  offset="1" style="stop-color:#0063CB"/>
		</radialGradient>
		<path class="st26" d="M1037.83,1111.92c-6.43,0-6.45,10,0,10C1044.27,1121.92,1044.28,1111.92,1037.83,1111.92z"/>
		<radialGradient id="SVGID_23_" cx="1170.4258" cy="1277.3169" r="4.9157" gradientUnits="userSpaceOnUse">
			<stop  offset="0" style="stop-color:#00B9F1"/>
			<stop  offset="0.3037" style="stop-color:#00B6F0"/>
			<stop  offset="0.4997" style="stop-color:#00AEEC"/>
			<stop  offset="0.6653" style="stop-color:#009FE5"/>
			<stop  offset="0.8139" style="stop-color:#008ADC"/>
			<stop  offset="0.9499" style="stop-color:#006FD0"/>
			<stop  offset="1" style="stop-color:#0063CB"/>
		</radialGradient>
		<path class="st27" d="M1170.43,1272.32c-6.43,0-6.45,10,0,10C1176.86,1282.32,1176.87,1272.32,1170.43,1272.32z"/>
		<radialGradient id="SVGID_24_" cx="285.0396" cy="654.9802" r="4.9157" gradientUnits="userSpaceOnUse">
			<stop  offset="0" style="stop-color:#00B9F1"/>
			<stop  offset="0.3037" style="stop-color:#00B6F0"/>
			<stop  offset="0.4997" style="stop-color:#00AEEC"/>
			<stop  offset="0.6653" style="stop-color:#009FE5"/>
			<stop  offset="0.8139" style="stop-color:#008ADC"/>
			<stop  offset="0.9499" style="stop-color:#006FD0"/>
			<stop  offset="1" style="stop-color:#0063CB"/>
		</radialGradient>
		<path class="st28" d="M285.04,649.98c-6.43,0-6.45,10,0,10C291.47,659.98,291.48,649.98,285.04,649.98z"/>
		<radialGradient id="SVGID_25_" cx="237.9901" cy="1157.5544" r="4.9157" gradientUnits="userSpaceOnUse">
			<stop  offset="0" style="stop-color:#00B9F1"/>
			<stop  offset="0.3037" style="stop-color:#00B6F0"/>
			<stop  offset="0.4997" style="stop-color:#00AEEC"/>
			<stop  offset="0.6653" style="stop-color:#009FE5"/>
			<stop  offset="0.8139" style="stop-color:#008ADC"/>
			<stop  offset="0.9499" style="stop-color:#006FD0"/>
			<stop  offset="1" style="stop-color:#0063CB"/>
		</radialGradient>
		<path class="st29" d="M237.99,1152.55c-6.43,0-6.45,10,0,10C244.42,1162.55,244.44,1152.55,237.99,1152.55z"/>
		<radialGradient id="SVGID_26_" cx="676.4059" cy="1285.8713" r="4.9157" gradientUnits="userSpaceOnUse">
			<stop  offset="0" style="stop-color:#00B9F1"/>
			<stop  offset="0.3037" style="stop-color:#00B6F0"/>
			<stop  offset="0.4997" style="stop-color:#00AEEC"/>
			<stop  offset="0.6653" style="stop-color:#009FE5"/>
			<stop  offset="0.8139" style="stop-color:#008ADC"/>
			<stop  offset="0.9499" style="stop-color:#006FD0"/>
			<stop  offset="1" style="stop-color:#0063CB"/>
		</radialGradient>
		<path class="st30" d="M676.41,1280.87c-6.43,0-6.45,10,0,10C682.84,1290.87,682.85,1280.87,676.41,1280.87z"/>
		<radialGradient id="SVGID_27_" cx="796.1683" cy="175.9307" r="4.9157" gradientUnits="userSpaceOnUse">
			<stop  offset="0" style="stop-color:#00B9F1"/>
			<stop  offset="0.3037" style="stop-color:#00B6F0"/>
			<stop  offset="0.4997" style="stop-color:#00AEEC"/>
			<stop  offset="0.6653" style="stop-color:#009FE5"/>
			<stop  offset="0.8139" style="stop-color:#008ADC"/>
			<stop  offset="0.9499" style="stop-color:#006FD0"/>
			<stop  offset="1" style="stop-color:#0063CB"/>
		</radialGradient>
		<path class="st31" d="M796.17,170.93c-6.43,0-6.44,10,0,10C802.6,180.93,802.61,170.93,796.17,170.93z"/>
		<radialGradient id="SVGID_28_" cx="580.1683" cy="15.5347" r="4.9157" gradientUnits="userSpaceOnUse">
			<stop  offset="0" style="stop-color:#00B9F1"/>
			<stop  offset="0.3037" style="stop-color:#00B6F0"/>
			<stop  offset="0.4997" style="stop-color:#00AEEC"/>
			<stop  offset="0.6653" style="stop-color:#009FE5"/>
			<stop  offset="0.8139" style="stop-color:#008ADC"/>
			<stop  offset="0.9499" style="stop-color:#006FD0"/>
			<stop  offset="1" style="stop-color:#0063CB"/>
		</radialGradient>
		<path class="st32" d="M580.17,10.53c-6.43,0-6.44,10,0,10C586.6,20.53,586.61,10.53,580.17,10.53z"/>
		<radialGradient id="SVGID_29_" cx="1157.594" cy="299.9703" r="4.9157" gradientUnits="userSpaceOnUse">
			<stop  offset="0" style="stop-color:#FF2E7F"/>
			<stop  offset="0.1844" style="stop-color:#FF2E7F"/>
			<stop  offset="0.5318" style="stop-color:#FD2D7F"/>
			<stop  offset="0.6926" style="stop-color:#F52B7F"/>
			<stop  offset="0.8145" style="stop-color:#E9267E"/>
			<stop  offset="0.9169" style="stop-color:#D71F7D"/>
			<stop  offset="0.933" style="stop-color:#D31E7D"/>
			<stop  offset="0.9546" style="stop-color:#D61F7D"/>
			<stop  offset="0.9734" style="stop-color:#E1237E"/>
			<stop  offset="0.991" style="stop-color:#F32A7E"/>
			<stop  offset="1" style="stop-color:#FF2E7F"/>
		</radialGradient>
		<path class="st33" d="M1157.59,294.97c-6.43,0-6.45,10,0,10C1164.03,304.97,1164.04,294.97,1157.59,294.97z"/>
		<radialGradient id="SVGID_30_" cx="1072.0494" cy="550.1881" r="4.9157" gradientUnits="userSpaceOnUse">
			<stop  offset="0" style="stop-color:#FF2E7F"/>
			<stop  offset="0.1844" style="stop-color:#FF2E7F"/>
			<stop  offset="0.5318" style="stop-color:#FD2D7F"/>
			<stop  offset="0.6926" style="stop-color:#F52B7F"/>
			<stop  offset="0.8145" style="stop-color:#E9267E"/>
			<stop  offset="0.9169" style="stop-color:#D71F7D"/>
			<stop  offset="0.933" style="stop-color:#D31E7D"/>
			<stop  offset="0.9546" style="stop-color:#D61F7D"/>
			<stop  offset="0.9734" style="stop-color:#E1237E"/>
			<stop  offset="0.991" style="stop-color:#F32A7E"/>
			<stop  offset="1" style="stop-color:#FF2E7F"/>
		</radialGradient>
		<path class="st34" d="M1072.05,545.19c-6.43,0-6.45,10,0,10C1078.48,555.19,1078.49,545.19,1072.05,545.19z"/>
		<radialGradient id="SVGID_31_" cx="1268.8019" cy="776.8812" r="4.9157" gradientUnits="userSpaceOnUse">
			<stop  offset="0" style="stop-color:#FF2E7F"/>
			<stop  offset="0.1844" style="stop-color:#FF2E7F"/>
			<stop  offset="0.5318" style="stop-color:#FD2D7F"/>
			<stop  offset="0.6926" style="stop-color:#F52B7F"/>
			<stop  offset="0.8145" style="stop-color:#E9267E"/>
			<stop  offset="0.9169" style="stop-color:#D71F7D"/>
			<stop  offset="0.933" style="stop-color:#D31E7D"/>
			<stop  offset="0.9546" style="stop-color:#D61F7D"/>
			<stop  offset="0.9734" style="stop-color:#E1237E"/>
			<stop  offset="0.991" style="stop-color:#F32A7E"/>
			<stop  offset="1" style="stop-color:#FF2E7F"/>
		</radialGradient>
		<path class="st35" d="M1268.8,771.88c-6.43,0-6.45,10,0,10C1275.24,781.88,1275.25,771.88,1268.8,771.88z"/>
		<radialGradient id="SVGID_32_" cx="1065.6337" cy="1012.1287" r="4.9157" gradientUnits="userSpaceOnUse">
			<stop  offset="0" style="stop-color:#FF2E7F"/>
			<stop  offset="0.1844" style="stop-color:#FF2E7F"/>
			<stop  offset="0.5318" style="stop-color:#FD2D7F"/>
			<stop  offset="0.6926" style="stop-color:#F52B7F"/>
			<stop  offset="0.8145" style="stop-color:#E9267E"/>
			<stop  offset="0.9169" style="stop-color:#D71F7D"/>
			<stop  offset="0.933" style="stop-color:#D31E7D"/>
			<stop  offset="0.9546" style="stop-color:#D61F7D"/>
			<stop  offset="0.9734" style="stop-color:#E1237E"/>
			<stop  offset="0.991" style="stop-color:#F32A7E"/>
			<stop  offset="1" style="stop-color:#FF2E7F"/>
		</radialGradient>
		<path class="st36" d="M1065.63,1007.13c-6.43,0-6.45,10,0,10C1072.07,1017.13,1072.08,1007.13,1065.63,1007.13z"/>
		<radialGradient id="SVGID_33_" cx="779.0593" cy="943.6931" r="4.9157" gradientUnits="userSpaceOnUse">
			<stop  offset="0" style="stop-color:#FF2E7F"/>
			<stop  offset="0.1844" style="stop-color:#FF2E7F"/>
			<stop  offset="0.5318" style="stop-color:#FD2D7F"/>
			<stop  offset="0.6926" style="stop-color:#F52B7F"/>
			<stop  offset="0.8145" style="stop-color:#E9267E"/>
			<stop  offset="0.9169" style="stop-color:#D71F7D"/>
			<stop  offset="0.933" style="stop-color:#D31E7D"/>
			<stop  offset="0.9546" style="stop-color:#D61F7D"/>
			<stop  offset="0.9734" style="stop-color:#E1237E"/>
			<stop  offset="0.991" style="stop-color:#F32A7E"/>
			<stop  offset="1" style="stop-color:#FF2E7F"/>
		</radialGradient>
		<path class="st37" d="M779.06,938.69c-6.43,0-6.45,10,0,10C785.49,948.69,785.5,938.69,779.06,938.69z"/>
		<radialGradient id="SVGID_34_" cx="644.3267" cy="1178.9406" r="4.9157" gradientUnits="userSpaceOnUse">
			<stop  offset="0" style="stop-color:#FF2E7F"/>
			<stop  offset="0.1844" style="stop-color:#FF2E7F"/>
			<stop  offset="0.5318" style="stop-color:#FD2D7F"/>
			<stop  offset="0.6926" style="stop-color:#F52B7F"/>
			<stop  offset="0.8145" style="stop-color:#E9267E"/>
			<stop  offset="0.9169" style="stop-color:#D71F7D"/>
			<stop  offset="0.933" style="stop-color:#D31E7D"/>
			<stop  offset="0.9546" style="stop-color:#D61F7D"/>
			<stop  offset="0.9734" style="stop-color:#E1237E"/>
			<stop  offset="0.991" style="stop-color:#F32A7E"/>
			<stop  offset="1" style="stop-color:#FF2E7F"/>
		</radialGradient>
		<path class="st38" d="M644.33,1173.94c-6.43,0-6.45,10,0,10C650.76,1183.94,650.77,1173.94,644.33,1173.94z"/>
		<radialGradient id="SVGID_35_" cx="210.1881" cy="870.9802" r="4.9157" gradientUnits="userSpaceOnUse">
			<stop  offset="0" style="stop-color:#FF2E7F"/>
			<stop  offset="0.1844" style="stop-color:#FF2E7F"/>
			<stop  offset="0.5318" style="stop-color:#FD2D7F"/>
			<stop  offset="0.6926" style="stop-color:#F52B7F"/>
			<stop  offset="0.8145" style="stop-color:#E9267E"/>
			<stop  offset="0.9169" style="stop-color:#D71F7D"/>
			<stop  offset="0.933" style="stop-color:#D31E7D"/>
			<stop  offset="0.9546" style="stop-color:#D61F7D"/>
			<stop  offset="0.9734" style="stop-color:#E1237E"/>
			<stop  offset="0.991" style="stop-color:#F32A7E"/>
			<stop  offset="1" style="stop-color:#FF2E7F"/>
		</radialGradient>
		<path class="st39" d="M210.19,865.98c-6.43,0-6.45,10,0,10C216.62,875.98,216.63,865.98,210.19,865.98z"/>
		<radialGradient id="SVGID_36_" cx="124.6435" cy="864.5643" r="4.9157" gradientUnits="userSpaceOnUse">
			<stop  offset="0" style="stop-color:#FF2E7F"/>
			<stop  offset="0.1844" style="stop-color:#FF2E7F"/>
			<stop  offset="0.5318" style="stop-color:#FD2D7F"/>
			<stop  offset="0.6926" style="stop-color:#F52B7F"/>
			<stop  offset="0.8145" style="stop-color:#E9267E"/>
			<stop  offset="0.9169" style="stop-color:#D71F7D"/>
			<stop  offset="0.933" style="stop-color:#D31E7D"/>
			<stop  offset="0.9546" style="stop-color:#D61F7D"/>
			<stop  offset="0.9734" style="stop-color:#E1237E"/>
			<stop  offset="0.991" style="stop-color:#F32A7E"/>
			<stop  offset="1" style="stop-color:#FF2E7F"/>
		</radialGradient>
		<path class="st40" d="M124.64,859.56c-6.43,0-6.45,10,0,10C131.08,869.56,131.09,859.56,124.64,859.56z"/>
		<radialGradient id="SVGID_37_" cx="116.0891" cy="682.7822" r="3.9325" gradientUnits="userSpaceOnUse">
			<stop  offset="0" style="stop-color:#FF2E7F"/>
			<stop  offset="0.1844" style="stop-color:#FF2E7F"/>
			<stop  offset="0.5318" style="stop-color:#FD2D7F"/>
			<stop  offset="0.6926" style="stop-color:#F52B7F"/>
			<stop  offset="0.8145" style="stop-color:#E9267E"/>
			<stop  offset="0.9169" style="stop-color:#D71F7D"/>
			<stop  offset="0.933" style="stop-color:#D31E7D"/>
			<stop  offset="0.9546" style="stop-color:#D61F7D"/>
			<stop  offset="0.9734" style="stop-color:#E1237E"/>
			<stop  offset="0.991" style="stop-color:#F32A7E"/>
			<stop  offset="1" style="stop-color:#FF2E7F"/>
		</radialGradient>
		<path class="st41" d="M116.09,678.78c-5.15,0-5.16,8,0,8C121.24,686.78,121.25,678.78,116.09,678.78z"/>
		<radialGradient id="SVGID_38_" cx="430.4653" cy="838.901" r="3.9325" gradientUnits="userSpaceOnUse">
			<stop  offset="0" style="stop-color:#FF2E7F"/>
			<stop  offset="0.1844" style="stop-color:#FF2E7F"/>
			<stop  offset="0.5318" style="stop-color:#FD2D7F"/>
			<stop  offset="0.6926" style="stop-color:#F52B7F"/>
			<stop  offset="0.8145" style="stop-color:#E9267E"/>
			<stop  offset="0.9169" style="stop-color:#D71F7D"/>
			<stop  offset="0.933" style="stop-color:#D31E7D"/>
			<stop  offset="0.9546" style="stop-color:#D61F7D"/>
			<stop  offset="0.9734" style="stop-color:#E1237E"/>
			<stop  offset="0.991" style="stop-color:#F32A7E"/>
			<stop  offset="1" style="stop-color:#FF2E7F"/>
		</radialGradient>
		<path class="st42" d="M430.47,834.9c-5.15,0-5.16,8,0,8C435.61,842.9,435.62,834.9,430.47,834.9z"/>
		<radialGradient id="SVGID_39_" cx="411.2178" cy="1119.0593" r="3.9325" gradientUnits="userSpaceOnUse">
			<stop  offset="0" style="stop-color:#FF2E7F"/>
			<stop  offset="0.1844" style="stop-color:#FF2E7F"/>
			<stop  offset="0.5318" style="stop-color:#FD2D7F"/>
			<stop  offset="0.6926" style="stop-color:#F52B7F"/>
			<stop  offset="0.8145" style="stop-color:#E9267E"/>
			<stop  offset="0.9169" style="stop-color:#D71F7D"/>
			<stop  offset="0.933" style="stop-color:#D31E7D"/>
			<stop  offset="0.9546" style="stop-color:#D61F7D"/>
			<stop  offset="0.9734" style="stop-color:#E1237E"/>
			<stop  offset="0.991" style="stop-color:#F32A7E"/>
			<stop  offset="1" style="stop-color:#FF2E7F"/>
		</radialGradient>
		<path class="st43" d="M411.22,1115.06c-5.15,0-5.16,8,0,8C416.37,1123.06,416.37,1115.06,411.22,1115.06z"/>
		<radialGradient id="SVGID_40_" cx="898.8218" cy="1317.9504" r="3.9325" gradientUnits="userSpaceOnUse">
			<stop  offset="0" style="stop-color:#FF2E7F"/>
			<stop  offset="0.1844" style="stop-color:#FF2E7F"/>
			<stop  offset="0.5318" style="stop-color:#FD2D7F"/>
			<stop  offset="0.6926" style="stop-color:#F52B7F"/>
			<stop  offset="0.8145" style="stop-color:#E9267E"/>
			<stop  offset="0.9169" style="stop-color:#D71F7D"/>
			<stop  offset="0.933" style="stop-color:#D31E7D"/>
			<stop  offset="0.9546" style="stop-color:#D61F7D"/>
			<stop  offset="0.9734" style="stop-color:#E1237E"/>
			<stop  offset="0.991" style="stop-color:#F32A7E"/>
			<stop  offset="1" style="stop-color:#FF2E7F"/>
		</radialGradient>
		<path class="st44" d="M898.82,1313.95c-5.15,0-5.16,8,0,8C903.97,1321.95,903.98,1313.95,898.82,1313.95z"/>
		<radialGradient id="SVGID_41_" cx="1397.1188" cy="1009.9901" r="3.9326" gradientUnits="userSpaceOnUse">
			<stop  offset="0" style="stop-color:#FF2E7F"/>
			<stop  offset="0.1844" style="stop-color:#FF2E7F"/>
			<stop  offset="0.5318" style="stop-color:#FD2D7F"/>
			<stop  offset="0.6926" style="stop-color:#F52B7F"/>
			<stop  offset="0.8145" style="stop-color:#E9267E"/>
			<stop  offset="0.9169" style="stop-color:#D71F7D"/>
			<stop  offset="0.933" style="stop-color:#D31E7D"/>
			<stop  offset="0.9546" style="stop-color:#D61F7D"/>
			<stop  offset="0.9734" style="stop-color:#E1237E"/>
			<stop  offset="0.991" style="stop-color:#F32A7E"/>
			<stop  offset="1" style="stop-color:#FF2E7F"/>
		</radialGradient>
		<path class="st45" d="M1397.12,1005.99c-5.15,0-5.16,8,0,8C1402.27,1013.99,1402.28,1005.99,1397.12,1005.99z"/>
	</g>
</g>
</svg>
